<svg width="24" height="24" viewBox="0 0 24 24" fill="none" xmlns="http://www.w3.org/2000/svg">
<rect width="24" height="24" rx="12" fill="white"/>
<mask id="mask0_90_836" style="mask-type:alpha" maskUnits="userSpaceOnUse" x="4" y="4" width="16" height="16">
<rect x="4" y="4" width="16" height="16" fill="#D9D9D9"/>
</mask>
<g mask="url(#mask0_90_836)">
<path d="M11.9999 18.2333L11.0333 17.3667C9.91103 16.3556 8.98325 15.4833 8.24992 14.75C7.51659 14.0167 6.93325 13.3582 6.49992 12.7747C6.06659 12.1916 5.76392 11.6556 5.59192 11.1667C5.41947 10.6778 5.33325 10.1778 5.33325 9.66667C5.33325 8.62222 5.68325 7.75 6.38325 7.05C7.08325 6.35 7.95547 6 8.99992 6C9.5777 6 10.1277 6.12222 10.6499 6.36667C11.1721 6.61111 11.6221 6.95556 11.9999 7.4C12.3777 6.95556 12.8277 6.61111 13.3499 6.36667C13.8721 6.12222 14.4221 6 14.9999 6C16.0444 6 16.9166 6.35 17.6166 7.05C18.3166 7.75 18.6666 8.62222 18.6666 9.66667C18.6666 10.1778 18.5806 10.6778 18.4086 11.1667C18.2361 11.6556 17.9333 12.1916 17.4999 12.7747C17.0666 13.3582 16.4833 14.0167 15.7499 14.75C15.0166 15.4833 14.0888 16.3556 12.9666 17.3667L11.9999 18.2333ZM11.9999 16.4333C13.0666 15.4778 13.9444 14.6582 14.6333 13.9747C15.3221 13.2916 15.8666 12.6973 16.2666 12.192C16.6666 11.6862 16.9444 11.236 17.0999 10.8413C17.2555 10.4471 17.3333 10.0556 17.3333 9.66667C17.3333 9 17.111 8.44444 16.6666 8C16.2221 7.55556 15.6666 7.33333 14.9999 7.33333C14.4777 7.33333 13.9944 7.48044 13.5499 7.77467C13.1055 8.06933 12.7999 8.44444 12.6333 8.9H11.3666C11.1999 8.44444 10.8944 8.06933 10.4499 7.77467C10.0055 7.48044 9.52214 7.33333 8.99992 7.33333C8.33325 7.33333 7.7777 7.55556 7.33325 8C6.88881 8.44444 6.66659 9 6.66659 9.66667C6.66659 10.0556 6.74436 10.4471 6.89992 10.8413C7.05547 11.236 7.33325 11.6862 7.73325 12.192C8.13325 12.6973 8.6777 13.2916 9.36659 13.9747C10.0555 14.6582 10.9333 15.4778 11.9999 16.4333Z" fill="#D1D1D1"/>
</g>
</svg>
